<svg xmlns="http://www.w3.org/2000/svg" viewBox="0 0 420 56" role="img" aria-label="聆涧 · LingJian">
  <defs>
    <linearGradient id="lj-h" x1="8" y1="44" x2="44" y2="44" gradientUnits="userSpaceOnUse">
      <stop offset="0%" stop-color="#00D2FF" stop-opacity="0.2"/>
      <stop offset="50%" stop-color="#00D2FF"/>
      <stop offset="100%" stop-color="#7CF0FF" stop-opacity="0.55"/>
    </linearGradient>
  </defs>
  <rect x="2" y="4" width="48" height="48" rx="12" fill="#1B2421"/>
  <rect x="3.2" y="5.2" width="45.6" height="45.6" rx="11" fill="none" stroke="#0D5E42" stroke-width="1.4"/>
  <svg x="13" y="12" width="26" height="26" viewBox="0 0 24 24" fill="none">
    <path d="M5 18l5-10 3 6 6-9" stroke="#E8D4B0" stroke-width="1.7" stroke-linecap="round" stroke-linejoin="round"/>
    <path d="M12 12c-1 3 2 5 0 8" stroke="#00D2FF" stroke-width="1.7" stroke-linecap="round"/>
  </svg>
  <rect x="10" y="43" width="32" height="3" rx="1.5" fill="url(#lj-h)"/>
  <polygon fill="#F1C40F" points="42.5,8 43.1,9.7 45,9.7 43.5,10.8 44.1,12.6 42.5,11.5 40.9,12.6 41.5,10.8 40,9.7 41.9,9.7"/>
  <text x="64" y="27" fill="#E8D4B0" font-family="system-ui,-apple-system,'PingFang SC',sans-serif"
        font-size="20" font-weight="700" letter-spacing="0.06em">聆涧 · LingJian</text>
  <text x="64" y="46" fill="#9aa3a0" font-family="system-ui,-apple-system,'PingFang SC',sans-serif"
        font-size="11">耳畔清涧，一字生境</text>
</svg>
